<svg version="1.2" xmlns="http://www.w3.org/2000/svg" viewBox="0 0 32 32" width="32" height="32">
	<title>bee</title>
	<style>
		.s0 { fill: #fafbff } 
		.s1 { fill: #3a6ff5 } 
	</style>
	<g id="Background">
		<path id="Path 0" class="s0" d="m0.1 10.3c0 6.1 0.3 9.4 0.8 8.2 0.5-1.1 2.7-3.2 5-4.8 2.2-1.5 4.3-2.7 4.6-2.7 0.3 0-0.2 2.8-1.1 6.3-1 3.4-2.2 6.8-2.8 7.5-0.6 0.7-1.9 1.3-2.9 1.2-0.9 0-2.1-1-2.6-2.3-0.8-1.8-1-1.2-1 3l-0.1 5.3h32v-32h-32z"/>
		<path id="Path 1" class="s1" d="m5.5 13.9c-2.2 1.5-4.3 3.9-4.7 5.2-0.4 1.3-0.2 3.4 0.3 4.6 0.5 1.3 1.7 2.3 2.7 2.3 0.9 0.1 2.2-0.5 2.8-1.2 0.6-0.7 1.8-4.1 2.8-7.5 0.9-3.5 1.3-6.3 0.9-6.3-0.5 0.1-2.6 1.4-4.8 2.9zm6.6-11.7c-0.6 0.7-0.9 2.1-0.6 3 0.3 1 1.2 1.8 2 1.8 0.8 0 1.7-0.6 2-1.3 0.4-1 0.6-1 1 0 0.3 0.7 1.2 1.3 2 1.3 0.8 0 1.6-0.7 1.8-1.5 0.1-0.8-0.1-2.2-0.6-3-0.7-1.1-1.3-1.2-2.3-0.5-1 0.7-1.8 0.7-2.8 0-0.9-0.7-1.7-0.6-2.5 0.2zm0.8 7.3c-1.2 1.4-0.9 1.6 3.1 1.6 4.1 0 4.4-0.2 3-1.6-0.8-0.9-2.2-1.6-3.1-1.5-0.9 0-2.3 0.7-3 1.5zm8.4 3.2c0.3 1 1.3 4.4 2.1 7.5 1.4 5.1 1.9 5.8 4.1 5.8 1.4 0 2.7-0.7 3-1.5 0.3-0.8 0.5-2.7 0.5-4.3 0-2.1-1-3.4-4.5-6-2.5-1.7-4.8-3.2-5.1-3.2-0.3 0-0.4 0.8-0.1 1.7zm-10.1 2.2c-0.3 0.2-0.5 1-0.4 1.8 0.1 0.9 1.8 1.3 5.2 1.3 4.1 0 5-0.3 4.7-1.6-0.1-1.2-1.3-1.7-4.5-1.8-2.4 0-4.6 0.1-5 0.3zm-0.1 8c-0.1 1.9 0.4 2.1 4.6 1.8 3.5-0.1 4.8-0.6 4.8-1.7 0-1.1-1.3-1.6-4.7-1.8-4.1-0.3-4.7-0.1-4.7 1.7zm1.9 6.6c0.8 0.9 2.2 1.6 3 1.6 0.8 0 2-0.7 2.5-1.6 0.9-1.3 0.4-1.5-3-1.5-3.5 0-3.8 0.2-2.5 1.5z"/>
	</g>
</svg>